<?xml version="1.0" encoding="UTF-8"?><svg id="Layer_2" xmlns="http://www.w3.org/2000/svg" width="110" height="29.7281" viewBox="0 0 110 29.7281"><defs><style>.cls-1{fill:#d81f26;}</style></defs><g id="Layer_1-2"><path class="cls-1" d="M15.1253,27.812c-1.6547.2906-3.3386.3777-5.0804.6097l-5.3129-15.5607v16.2285c-1.6547.1741-3.1643.4064-4.732.6386V0h4.4129l6.0384,16.8675V0h4.674v27.812h0ZM24.2703,10.8868c1.8001,0,4.558-.0871,6.2127-.0871v4.6449c-2.0613,0-4.4708,0-6.2127.0871v6.9096c2.7291-.1741,5.458-.4066,8.2158-.4937v4.4706l-12.861,1.0163V0h12.861v4.645h-8.2158s0,6.2417,0,6.2417ZM49.7597,4.6451h-4.8192v21.3671c-1.5677,0-3.1354,0-4.6448.0579V4.6451h-4.8192V0h14.2833s-.0002,4.6451-.0002,4.6451ZM57.3079,10.5675h6.358v4.6449h-6.358v10.5385h-4.5582V0h12.9774v4.645h-8.4192v5.9225ZM73.2751,21.6864c2.6419.0579,5.3127.2615,7.8966.4064v4.587c-4.1514-.2615-8.303-.5224-12.5415-.6097V0h4.6449v21.6864h0ZM85.0909,26.9992c1.4806.0872,3.0483.1743,4.5579.3483V0h-4.5579v26.9992ZM110,0l-5.8935,14.1383,5.8935,15.5898c-1.7421-.2322-3.4839-.5516-5.2259-.842l-3.3385-8.5931-3.3964,7.8966c-1.6842-.2906-3.3099-.3777-4.9934-.6099l5.9804-13.6157-5.4-13.964h4.9932l3.0483,7.8095,3.2517-7.8095h5.0805Z"/></g></svg>